# xmcd
#
# Track frame offsets:
#	150
#	8775
#	30062
#	49281
#	67583
#	93416
#	112103
#	131867
#	153568
#	177571
#	195353
#	215987
#
# Disc length: 3074 seconds
#
# Revision: 1
# Processed by: cddbd v1.5.2PL0 Copyright (c) Steve Scherf et al.
# Submitted via: EZCDAudioConverter 8.0.2.1
#
DISCID=a30c000c
DTITLE=Huỳnh Gia Tuấn - Driven
DYEAR=2007
DGENRE=
TTITLE0=Huỳnh Gia Tuấn - Intro
TTITLE1=Huỳnh Gia Tuấn - Tìm trong ký ức
TTITLE2=Huỳnh Gia Tuấn - Nhớ em muôn đời
TTITLE3=Huỳnh Gia Tuấn - Khúc mưa buồn
TTITLE4=Huỳnh Gia Tuấn, Vân Quỳnh - Tình em mãi trao về anh
TTITLE5=Huỳnh Gia Tuấn - CHỉ có em
TTITLE6=Huỳnh Gia Tuấn - Nỗi đau bên đời
TTITLE7=Huỳnh Gia Tuấn, mAsOul - Tình
TTITLE8=Huỳnh Gia Tuấn - Cho trọn đường tình
TTITLE9=Huỳnh Gia Tuấn - Girl
TTITLE10=Huỳnh Gia Tuấn - Tình trong nỗi buồn
TTITLE11=Huỳnh Gia Tuấn, Kalien - Chỉ riêng có em
EXTD=
EXTT0=
EXTT1=
EXTT2=
EXTT3=
EXTT4=
EXTT5=
EXTT6=
EXTT7=
EXTT8=
EXTT9=
EXTT10=
EXTT11=
PLAYORDER=
